Coordinates
version=1
nRows=9
nColumns=26
inDegrees=yes

Units are S.I. units (second, meters, Newtons, ...)
Angles are in degrees.

endheader
time	pelvis_tilt	pelvis_list	pelvis_rotation	pelvis_tx	pelvis_ty	pelvis_tz	hip_flexion_r	hip_adduction_r	hip_rotation_r	knee_angle_r	knee_angle_r_beta	ankle_angle_r	subtalar_angle_r	mtp_angle_r	hip_flexion_l	hip_adduction_l	hip_rotation_l	knee_angle_l	knee_angle_l_beta	ankle_angle_l	subtalar_angle_l	mtp_angle_l	lumbar_extension	lumbar_bending	lumbar_rotation
      1.34000000	    -13.93665052	     -2.32291861	     -0.83044847	      0.92034523	      0.89210945	      0.36034251	     22.79206374	      6.31660915	     -0.11800178	     42.10342623	      0.73484341	     28.61568969	      0.00000000	      0.00000000	     36.61335340	     -9.10290396	      5.52818535	    117.47019145	      2.05024161	      8.45971524	      0.00000000	      0.00000000	     -1.13098708	      4.72030498	     -2.17876255
      1.34400000	    -13.96469260	     -2.06409831	     -0.89539890	      0.93643921	      0.89402840	      0.36019034	     21.19615999	      6.02551150	     -0.12696821	     40.99307046	      0.71546405	     28.43552686	      0.00000000	      0.00000000	     37.93902832	     -8.83492339	      5.04310960	    116.63793706	      2.03571603	      8.58628625	      0.00000000	      0.00000000	     -0.91248751	      4.32006285	     -1.30952822
      1.34800000	    -14.05277350	     -1.78283820	     -0.99767674	      0.95254851	      0.89601938	      0.36010102	     19.69215651	      5.69299795	     -0.17003986	     39.89451690	      0.69629067	     28.13198375	      0.00000000	      0.00000000	     39.25437022	     -8.57975273	      4.48517377	    115.67669885	      2.01893926	      8.82628505	      0.00000000	      0.00000000	     -0.60898797	      3.88525648	     -0.39694951
      1.35200000	    -14.16526216	     -1.42068195	     -1.06852436	      0.96882916	      0.89811046	      0.35999234	     18.22448199	      5.24749843	     -0.22655380	     38.81097006	      0.67737921	     27.66738717	      0.00000000	      0.00000000	     40.53209861	     -8.20088592	      3.90756909	    114.59332934	      2.00003090	      8.99835682	      0.00000000	      0.00000000	     -0.24664448	      3.35766749	      0.46237009
      1.35600000	    -14.22248560	     -1.00523128	     -1.12004131	      0.98519114	      0.90057763	      0.35985755	     16.68291150	      4.73578422	     -0.20481782	     37.63620491	      0.65687569	     26.98714646	      0.00000000	      0.00000000	     41.64718683	     -7.77749029	      3.27364702	    113.34035777	      1.97816242	      9.22092147	      0.00000000	      0.00000000	      0.06734891	      2.76658498	      1.28260816
      1.36000000	    -14.31109525	     -0.59548314	     -1.11662179	      1.00173405	      0.90310107	      0.35959331	     15.20130440	      4.17749038	     -0.31304842	     36.51611437	      0.63732643	     26.09131980	      0.00000000	      0.00000000	     42.76164852	     -7.34924733	      2.63459926	    111.97841124	      1.95439197	      9.36591336	      0.00000000	      0.00000000	      0.47108904	      2.16945403	      2.02612420
      1.36400000	    -14.47880480	     -0.15185835	     -1.17450671	      1.01835965	      0.90565055	      0.35953942	     13.82650229	      3.59275507	     -0.44431080	     35.38940233	      0.61766159	     24.99961807	      0.00000000	      0.00000000	     43.88652982	     -6.99100735	      1.87061899	    110.50727081	      1.92871572	      9.51445024	      0.00000000	      0.00000000	      0.98026788	      1.53492261	      2.83553218
      1.36800000	    -14.29608089	      0.28744991	     -1.14125440	      1.03533832	      0.90895256	      0.35933724	     11.96882524	      2.98547789	     -0.53852695	     34.02263275	      0.59380696	     23.40710789	      0.00000000	      0.00000000	     44.48100478	     -6.59608044	      1.12369796	    108.80634445	      1.89902896	      9.84521779	      0.00000000	      0.00000000	      1.09055576	      0.90091782	      3.49415694
      1.37200000	    -14.54727202	      0.76633215	     -1.10282010	      1.05217380	      0.91167119	      0.35907391	     10.70078142	      2.34167135	     -0.65557465	     32.87103226	      0.57370774	     21.86119824	      0.00000000	      0.00000000	     45.57143109	     -6.11926754	      0.41424512	    107.09469810	      1.86915509	     10.07541878	      0.00000000	      0.00000000	      1.75703211	      0.23035121	      4.17422210
